<?xml version="1.0" standalone="no"?>
<!DOCTYPE svg PUBLIC "-//W3C//DTD SVG 20010904//EN"
 "http://www.w3.org/TR/2001/REC-SVG-20010904/DTD/svg10.dtd">
<svg version="1.0" xmlns="http://www.w3.org/2000/svg"
 width="500.000000pt" height="500.000000pt" viewBox="0 0 500.000000 500.000000"
 preserveAspectRatio="xMidYMid meet">
<metadata>
Created by potrace 1.14, written by Peter Selinger 2001-2017
</metadata>
<g transform="translate(0.000000,500.000000) scale(0.100000,-0.100000)"
fill="#000000" stroke="none">
<path d="M2350 4969 c-79 -7 -155 -17 -180 -24 -8 -2 -31 -6 -50 -9 -19 -3
-80 -19 -135 -36 -55 -17 -107 -32 -116 -34 -15 -4 -54 -20 -126 -53 -21 -9
-40 -17 -43 -17 -24 -4 -246 -133 -291 -170 -14 -11 -36 -28 -49 -36 -65 -43
-183 -151 -282 -260 -63 -68 -198 -251 -198 -268 0 -6 -4 -12 -8 -14 -13 -5
-87 -145 -131 -250 -43 -99 -104 -289 -96 -296 2 -3 0 -13 -5 -22 -5 -10 -12
-37 -15 -60 -3 -23 -7 -45 -9 -49 -19 -30 -29 -442 -13 -561 27 -208 89 -409
191 -620 40 -82 38 -79 113 -195 108 -167 283 -356 428 -465 33 -25 62 -48 65
-51 3 -3 19 -13 36 -22 17 -9 36 -23 43 -31 7 -9 17 -14 21 -11 4 3 13 -2 20
-10 7 -8 18 -15 25 -15 8 0 15 -4 17 -8 5 -14 208 -110 299 -141 238 -83 439
-118 674 -115 122 1 200 8 290 25 28 5 64 12 80 14 51 9 218 57 248 72 15 7
27 11 27 9 0 -12 213 88 295 137 312 188 529 405 707 707 75 126 186 389 171
404 -4 3 0 6 7 6 7 0 11 3 7 6 -3 3 -2 17 4 31 5 13 11 36 14 51 3 15 7 37 10
50 12 52 14 61 20 98 3 22 8 53 11 71 3 18 7 67 9 110 2 43 5 80 6 83 1 3 1 7
1 10 0 3 -3 64 -6 135 -3 72 -8 140 -10 151 -2 12 -7 39 -11 60 -15 89 -17
100 -20 119 -2 11 -11 45 -20 75 -9 30 -17 62 -19 70 -21 86 -130 325 -197
432 -180 284 -378 480 -655 650 -127 78 -385 187 -504 213 -8 2 -44 10 -80 18
-36 9 -85 18 -110 21 -25 4 -61 9 -80 12 -61 8 -302 11 -380 3z m335 -353 c22
-3 57 -8 78 -11 20 -2 65 -11 100 -20 34 -8 71 -17 82 -20 53 -11 215 -72 229
-86 6 -5 18 -9 28 -9 10 0 18 -4 18 -10 0 -5 5 -10 11 -10 6 0 24 -9 40 -21
16 -11 29 -18 29 -15 0 6 112 -66 169 -109 76 -58 194 -172 261 -255 25 -30
47 -57 50 -60 24 -23 170 -270 170 -287 0 -3 7 -19 15 -36 14 -30 85 -242 85
-254 0 -5 -12 -3 -85 16 -48 13 -119 23 -160 24 -45 0 -180 -17 -180 -23 0 -1
-8 -3 -17 -5 -10 -2 -73 -19 -141 -39 -288 -84 -356 -83 -672 14 -38 11 -79
23 -90 25 -195 43 -257 39 -494 -32 -63 -18 -135 -38 -160 -44 -25 -6 -55 -13
-66 -15 -11 -3 -56 -7 -100 -8 -82 -3 -175 13 -310 54 -38 12 -74 22 -80 24
-5 1 -30 8 -55 15 -53 15 -73 20 -120 27 -38 6 -156 6 -180 1 -8 -2 -36 -7
-63 -12 -26 -4 -50 -11 -53 -16 -3 -5 -14 -9 -24 -9 -18 0 -18 2 1 73 52 188
152 384 277 542 268 337 649 546 1077 591 33 4 61 7 62 9 6 4 231 -3 268 -9z
m-1355 -1430 c38 -6 110 -24 163 -40 26 -8 47 -13 47 -10 0 2 14 -3 31 -11 17
-9 33 -14 37 -11 3 3 11 1 19 -5 7 -6 13 -8 13 -5 0 4 8 3 18 -3 9 -5 35 -11
57 -15 22 -3 51 -8 65 -11 28 -6 141 -6 180 0 44 7 84 16 125 27 22 5 49 12
60 15 26 6 37 9 55 16 8 3 35 11 60 18 25 7 50 14 55 15 6 2 44 9 86 17 107
19 180 14 324 -23 44 -12 86 -21 93 -22 6 -1 12 -6 12 -11 0 -6 2 -8 5 -5 3 3
38 -3 78 -14 40 -11 83 -21 97 -23 14 -2 36 -7 50 -10 68 -14 197 -4 305 25
22 6 47 12 55 14 8 3 54 16 101 29 224 66 367 66 531 0 35 -14 38 -18 38 -54
0 -21 -2 -39 -4 -39 -2 0 -25 9 -49 19 -25 11 -58 22 -74 25 -15 2 -48 8 -73
13 -70 13 -142 10 -260 -12 -21 -4 -132 -35 -150 -42 -8 -3 -19 -7 -25 -9 -5
-1 -44 -11 -85 -23 -190 -52 -276 -47 -549 34 -68 20 -146 41 -175 46 -56 12
-205 18 -221 10 -5 -3 -19 -7 -30 -8 -34 -5 -159 -35 -170 -42 -5 -3 -14 -6
-20 -7 -5 -1 -50 -13 -100 -27 -114 -32 -164 -40 -245 -38 -57 1 -87 5 -185
25 -11 3 -74 21 -140 41 -66 20 -133 38 -149 40 -15 2 -37 7 -48 11 -35 11
-201 7 -248 -6 -25 -7 -52 -13 -61 -15 -8 -2 -32 -10 -53 -19 l-37 -15 3 41 3
42 71 22 c39 13 91 26 115 29 24 4 45 8 46 9 3 3 124 -3 153 -8z m65 -351 c36
-9 101 -26 143 -39 42 -13 91 -27 107 -32 41 -10 44 -11 50 -14 3 -1 8 -3 13
-4 11 -4 146 -20 152 -19 3 0 38 3 78 7 40 3 77 8 83 12 6 3 20 7 32 9 22 4
41 9 210 59 115 34 164 41 267 39 84 -2 127 -11 385 -83 195 -54 283 -55 470
-4 11 3 27 7 35 9 8 2 16 4 18 5 1 2 7 4 12 5 6 1 11 3 13 5 1 1 9 3 17 5 8 2
60 16 115 30 146 40 275 39 412 -3 54 -17 58 -20 56 -47 -3 -44 -11 -59 -26
-47 -6 5 -28 13 -47 17 -19 4 -39 10 -45 13 -32 20 -281 18 -313 -2 -5 -3 -22
-8 -38 -11 -37 -8 -42 -9 -114 -34 -19 -7 -50 -14 -69 -17 -19 -2 -38 -7 -42
-10 -5 -3 -19 -7 -31 -10 -13 -2 -36 -7 -53 -11 -39 -9 -219 -9 -265 0 -19 4
-56 13 -82 21 -27 8 -48 13 -48 10 0 -3 -8 0 -18 5 -11 6 -30 12 -43 15 -13 3
-58 15 -99 26 -41 12 -87 24 -101 26 -51 9 -165 10 -209 2 -25 -5 -56 -10 -70
-13 -14 -2 -46 -11 -72 -19 -26 -7 -49 -11 -52 -8 -4 3 -6 1 -6 -5 0 -5 -6
-10 -12 -10 -7 0 -60 -13 -118 -28 -78 -21 -131 -28 -205 -29 -110 -1 -143 3
-260 35 -44 11 -84 22 -90 23 -11 2 -82 24 -105 33 -8 3 -24 7 -35 8 -11 2
-36 6 -55 10 -19 4 -69 8 -110 8 -70 0 -101 -3 -157 -17 -13 -3 -32 -8 -44
-11 -12 -2 -27 -9 -35 -16 -11 -9 -16 -6 -22 12 -18 48 -10 61 47 80 30 11 75
22 100 25 25 3 48 8 50 10 8 8 163 -7 226 -21z m-45 -329 c14 -3 39 -8 55 -12
17 -3 68 -17 115 -31 314 -93 394 -93 690 -2 245 76 376 72 675 -21 39 -11 79
-23 90 -26 11 -2 31 -7 45 -10 58 -13 177 -15 239 -4 36 6 125 28 196 50 72
21 147 41 169 44 21 4 42 9 46 11 5 3 40 7 79 10 75 4 163 -13 206 -41 l24
-15 -60 -116 c-131 -255 -300 -445 -539 -608 -112 -76 -380 -194 -480 -210
-14 -3 -56 -11 -93 -20 -199 -44 -458 -36 -679 21 -10 2 -26 6 -35 8 -144 33
-423 173 -538 271 -16 14 -41 34 -53 45 -13 11 -26 20 -29 20 -7 0 -138 137
-166 173 -12 16 -29 36 -38 45 -59 62 -223 359 -210 381 4 7 34 21 67 31 57
18 156 20 224 6z"/>
<path d="M2367 4494 c-2 -2 -23 -6 -48 -9 -379 -45 -743 -265 -985 -594 -10
-12 -15 -13 -27 -2 -13 10 -21 5 -51 -41 -20 -29 -36 -57 -36 -63 0 -5 30 -28
66 -50 36 -22 71 -45 77 -50 7 -6 71 -48 142 -94 72 -47 149 -97 172 -112 l43
-28 39 58 c35 50 37 58 23 68 -15 9 -15 12 0 35 30 46 132 144 199 191 68 48
224 127 252 127 13 0 15 -27 14 -215 l-2 -215 34 5 c18 3 37 7 41 10 16 10
108 19 190 19 86 1 163 -9 240 -28 l25 -7 0 216 c-1 157 2 215 11 215 12 0 58
-18 139 -55 71 -32 203 -134 269 -207 58 -63 64 -76 45 -95 -8 -8 0 -26 26
-66 l37 -56 50 32 c27 18 61 39 74 47 95 60 376 246 379 250 2 4 -13 31 -34
62 -32 47 -40 54 -56 46 -14 -8 -20 -7 -27 7 -18 30 -132 159 -192 215 -69 65
-180 150 -195 150 -6 0 -11 4 -11 9 0 8 -220 124 -242 127 -4 1 -9 2 -10 4 -2
1 -10 3 -18 5 -8 2 -35 11 -60 20 -25 9 -53 19 -62 21 -10 2 -27 6 -38 9 -47
12 -107 24 -155 31 -42 6 -333 13 -338 8z"/>
<path d="M2412 2423 c-42 -7 -84 -14 -92 -16 -8 -2 -27 -7 -42 -12 l-28 -7 -1
-152 c-2 -443 -3 -491 -19 -491 -13 0 -27 -41 -24 -75 1 -8 2 -26 3 -40 l1
-26 303 1 302 0 3 68 c2 41 -1 67 -8 68 -5 1 -16 2 -22 3 -10 1 -13 73 -13
322 l0 321 -65 16 c-143 35 -183 38 -298 20z"/>
<path d="M582 990 c-7 -4 -8 -93 -3 -135 1 -11 152 -12 169 -1 11 6 14 135 3
137 -23 4 -163 4 -169 -1z"/>
<path d="M4388 980 c-2 -8 -3 -75 -3 -147 1 -73 -1 -133 -3 -133 -2 0 -27 7
-55 15 -52 14 -181 15 -241 1 -60 -14 -123 -57 -172 -118 -13 -16 -33 -72 -42
-113 -11 -58 -5 -214 11 -254 9 -21 13 -41 10 -45 -4 -3 -1 -6 5 -6 7 0 12 -7
12 -15 0 -9 22 -38 48 -64 66 -66 138 -93 257 -94 105 -2 221 8 279 24 23 6
48 12 56 14 13 2 15 62 15 476 l0 474 -87 0 c-70 0 -87 -2 -90 -15z m-61 -413
c59 -15 58 -11 59 -201 l1 -175 -26 -11 c-14 -5 -46 -13 -71 -16 -50 -6 -53
-6 -95 0 -16 2 -35 4 -42 5 -26 2 -83 64 -93 101 -16 59 -18 141 -5 193 22 87
70 117 180 112 39 -1 80 -5 92 -8z"/>
<path d="M4674 991 c-2 -2 -4 -35 -4 -73 0 -67 0 -68 28 -69 48 -1 147 3 150
6 4 3 5 48 3 105 l-1 36 -86 -1 c-47 0 -87 -2 -90 -4z"/>
<path d="M179 833 c-7 -125 -2 -659 7 -698 21 -99 71 -128 227 -130 l97 -2 0
72 0 73 -54 4 c-90 7 -91 9 -93 239 l-3 197 53 0 c106 0 97 -7 97 72 l0 70
-79 0 c-79 0 -79 0 -86 29 -8 38 -45 71 -92 82 -56 13 -73 11 -74 -8z"/>
<path d="M1259 849 c-7 -20 -4 -675 3 -711 20 -99 68 -129 215 -133 56 -2 104
-1 104 3 1 4 3 37 4 74 l2 68 -38 0 c-54 0 -88 16 -101 47 -6 17 -11 99 -12
206 -1 198 -4 190 69 186 82 -5 81 -6 82 71 l0 70 -76 0 -76 0 -20 43 c-12 23
-32 47 -46 54 -25 12 -108 29 -110 22z"/>
<path d="M883 732 c-13 -2 -23 -11 -24 -20 -5 -109 -3 -681 3 -693 6 -13 24
-16 92 -16 47 0 85 3 84 6 0 3 1 8 2 11 6 14 4 150 -2 150 -4 0 -4 10 0 23 8
24 7 79 -2 103 -3 8 -2 14 2 14 4 0 7 34 7 75 0 41 -3 75 -8 75 -4 0 -1 13 7
28 20 39 86 83 135 89 33 5 41 10 42 27 0 11 2 45 2 74 l2 53 -35 -4 c-45 -6
-86 -24 -132 -60 l-37 -28 -7 25 c-3 13 -13 31 -22 39 -21 18 -79 34 -109 29z"/>
<path d="M3380 729 c-47 -3 -109 -11 -137 -18 l-53 -13 0 -70 0 -69 28 5 c15
2 49 9 76 14 78 16 225 9 268 -12 38 -18 57 -51 54 -96 -1 -20 -6 -25 -26 -23
-264 25 -405 -18 -445 -134 -12 -33 -13 -117 -3 -164 8 -34 60 -90 104 -109
99 -46 261 -43 354 5 25 13 29 13 34 -1 12 -31 120 -57 153 -36 18 12 15 526
-4 572 -34 83 -113 129 -253 146 -25 3 -49 6 -55 7 -5 2 -48 0 -95 -4z m229
-424 c2 -3 6 -26 6 -50 2 -35 -2 -47 -19 -58 -59 -39 -190 -55 -238 -31 -32
17 -48 43 -43 70 2 10 4 25 4 32 1 7 20 21 43 32 34 15 59 18 141 14 55 -2
103 -6 106 -9z"/>
<path d="M579 728 c-4 -9 -3 -718 1 -719 3 -1 44 -2 91 -3 l86 -2 0 363 0 363
-88 0 c-49 0 -90 -1 -90 -2z"/>
<path d="M1751 714 c-35 -7 -66 -16 -69 -19 -3 -3 -6 -34 -7 -70 -1 -53 2 -65
17 -68 10 -3 20 -2 23 3 14 23 237 34 303 14 57 -16 82 -46 82 -96 0 -39 -1
-39 -31 -33 -34 8 -212 9 -245 1 -141 -31 -208 -100 -207 -211 1 -159 110
-238 316 -229 35 2 90 13 122 25 53 20 59 20 70 6 17 -23 59 -37 113 -37 l47
0 -1 273 c-1 287 -4 308 -51 363 -20 24 -113 78 -120 70 -3 -2 -21 1 -41 8
-49 17 -241 17 -321 0z m324 -407 c16 -3 21 -13 23 -53 3 -47 1 -50 -30 -66
-55 -27 -71 -31 -138 -34 -65 -2 -113 12 -123 38 -18 50 17 112 68 120 23 4
171 0 200 -5z"/>
<path d="M2385 368 l0 -363 90 0 90 0 2 243 1 243 27 23 c59 51 123 72 201 67
30 -2 71 -41 80 -76 4 -16 8 -136 8 -265 l1 -235 87 -1 c53 0 89 4 91 10 6 18
0 519 -6 544 -28 112 -108 170 -237 171 -76 1 -143 -17 -216 -59 l-52 -29 -6
25 c-9 35 -62 64 -116 64 l-45 0 0 -362z"/>
<path d="M4670 367 l0 -363 90 -1 90 0 0 51 c1 86 1 630 1 654 -1 21 -5 22
-91 22 l-90 0 0 -363z"/>
</g>
</svg>
